<svg width="178" height="135" viewBox="0 0 178 135" fill="none" xmlns="http://www.w3.org/2000/svg">
<path d="M155.448 46H156.504C147.526 19.2621 122.262 0 92.5 0C62.7377 0 37.4743 19.2621 28.4963 46H29.5523C38.4905 19.8239 63.2969 1 92.5 1C121.703 1 146.509 19.8239 155.448 46Z" fill="white"/>
<path d="M156.669 88.5H155.616C146.825 114.936 121.889 134 92.5 134C63.1113 134 38.1753 114.936 29.3838 88.5H28.3306C37.1601 115.497 62.5525 135 92.5 135C122.447 135 147.84 115.497 156.669 88.5Z" fill="white"/>
<path d="M33.6155 88.5C33.6205 88.5139 33.6254 88.5278 33.6304 88.5416C33.6654 88.5295 33.6992 88.5155 33.7319 88.5H33.6155Z" fill="white"/>
<path d="M151.268 88.5C151.301 88.5155 151.335 88.5295 151.37 88.5416C151.375 88.5278 151.379 88.5139 151.384 88.5H151.268Z" fill="white"/>
<path d="M149.003 94.249C148.509 94.0098 147.914 94.2133 147.671 94.7061C146.477 97.1211 145.13 99.4465 143.642 101.67C143.336 102.126 143.456 102.744 143.91 103.052C144.005 102.916 144.099 102.778 144.193 102.64C144.287 102.503 144.38 102.364 144.473 102.226C145.985 99.9668 147.354 97.6034 148.567 95.149C148.61 95.0624 148.653 94.9756 148.695 94.8887C148.726 94.8258 148.756 94.7629 148.787 94.6999C148.859 94.5499 148.931 94.3996 149.003 94.249Z" fill="white"/>
<path d="M140.144 107.953C139.729 107.594 139.102 107.637 138.739 108.05C136.968 110.067 135.067 111.968 133.05 113.739C132.637 114.102 132.594 114.729 132.953 115.144C133.08 115.037 133.206 114.928 133.332 114.819C133.458 114.71 133.584 114.601 133.709 114.491C135.76 112.691 137.691 110.76 139.491 108.709C139.601 108.584 139.71 108.458 139.819 108.332C139.928 108.206 140.036 108.08 140.144 107.953Z" fill="white"/>
<path d="M128.052 118.91C127.744 118.456 127.126 118.336 126.67 118.642C124.447 120.13 122.121 121.477 119.706 122.671C119.213 122.914 119.01 123.509 119.249 124.003C119.4 123.931 119.55 123.859 119.7 123.787C119.85 123.714 120 123.641 120.149 123.567C122.603 122.354 124.967 120.985 127.226 119.473C127.364 119.38 127.503 119.287 127.64 119.193C127.778 119.099 127.915 119.005 128.052 118.91Z" fill="white"/>
<path d="M113.542 126.37C113.361 125.852 112.796 125.575 112.276 125.752C109.755 126.607 107.16 127.304 104.504 127.829C103.964 127.936 103.613 128.458 103.715 128.997C103.879 128.967 104.043 128.936 104.207 128.905C104.371 128.874 104.534 128.843 104.698 128.81C107.397 128.276 110.035 127.568 112.597 126.699C112.755 126.645 112.913 126.591 113.07 126.536C113.228 126.481 113.385 126.426 113.542 126.37Z" fill="white"/>
<path d="M97.589 129.796C97.5493 129.249 97.0756 128.835 96.5271 128.87C95.1959 128.956 93.8531 129 92.5 129C91.1468 129 89.804 128.956 88.4729 128.87C87.9244 128.835 87.4506 129.249 87.411 129.796C87.577 129.809 87.7432 129.822 87.9096 129.834C88.0756 129.846 88.2419 129.857 88.4084 129.868C89.761 129.956 91.1253 130 92.5 130C93.8747 130 95.239 129.956 96.5916 129.868C96.758 129.857 96.9243 129.846 97.0904 129.834C97.2568 129.822 97.423 129.809 97.589 129.796Z" fill="white"/>
<path d="M81.2849 128.997C81.3871 128.458 81.0356 127.936 80.4964 127.829C77.8401 127.304 75.2453 126.607 72.724 125.752C72.2036 125.575 71.6387 125.852 71.4583 126.37C71.6152 126.426 71.7724 126.481 71.9298 126.536C72.0872 126.591 72.2448 126.645 72.4027 126.699C74.9653 127.568 77.6026 128.276 80.3024 128.81C80.4657 128.843 80.6294 128.874 80.7932 128.905C80.9569 128.936 81.1208 128.967 81.2849 128.997Z" fill="white"/>
<path d="M65.751 124.003C65.9901 123.509 65.7866 122.914 65.2939 122.671C62.8789 121.477 60.5534 120.13 58.3303 118.642C57.8736 118.336 57.2563 118.456 56.9475 118.91C57.0845 119.005 57.2219 119.099 57.3596 119.193C57.4974 119.287 57.6355 119.38 57.774 119.473C60.0332 120.985 62.3965 122.354 64.8509 123.567C65.0003 123.641 65.15 123.714 65.3001 123.787C65.4501 123.859 65.6004 123.931 65.751 124.003Z" fill="white"/>
<path d="M52.0474 115.144C52.4061 114.729 52.3633 114.102 51.9502 113.739C49.9325 111.968 48.0316 110.067 46.2607 108.05C45.8982 107.637 45.2707 107.594 44.8555 107.953C44.9635 108.08 45.0719 108.206 45.1808 108.332C45.2898 108.458 45.3992 108.584 45.5092 108.709C47.3087 110.76 49.2402 112.691 51.2906 114.491C51.4158 114.601 51.5415 114.71 51.6677 114.819C51.7938 114.928 51.9204 115.037 52.0474 115.144Z" fill="white"/>
<path d="M41.0901 103.052C41.5436 102.744 41.6639 102.126 41.3581 101.67C39.8698 99.4465 38.5226 97.1211 37.3294 94.7061C37.0859 94.2133 36.4908 94.0098 35.9971 94.249C36.0685 94.3996 36.1406 94.5499 36.2132 94.6999C36.2858 94.8499 36.359 94.9997 36.4329 95.149C37.6455 97.6035 39.0146 99.9668 40.5271 102.226C40.6199 102.364 40.7132 102.503 40.807 102.64C40.9008 102.778 40.9952 102.916 41.0901 103.052Z" fill="white"/>
<path d="M35.9971 40.751C36.4908 40.9902 37.0859 40.7867 37.3294 40.2939C38.5226 37.8789 39.8698 35.5535 41.3581 33.3303C41.6639 32.8736 41.5436 32.2563 41.0901 31.9475C40.9952 32.0845 40.9008 32.2219 40.807 32.3597C40.7131 32.4974 40.6199 32.6355 40.5271 32.774C39.0146 35.0332 37.6455 37.3965 36.4328 39.851C36.359 40.0003 36.2858 40.1501 36.2132 40.3001C36.1406 40.4501 36.0685 40.6004 35.9971 40.751Z" fill="white"/>
<path d="M44.8555 27.0474C45.2707 27.4061 45.8982 27.3633 46.2607 26.9502C48.0316 24.9325 49.9325 23.0317 51.9502 21.2608C52.3633 20.8982 52.406 20.2707 52.0474 19.8555C51.9204 19.9635 51.7938 20.0719 51.6677 20.1809C51.5415 20.2898 51.4158 20.3993 51.2906 20.5092C49.2402 22.3087 47.3087 24.2403 45.5092 26.2906C45.3992 26.4158 45.2898 26.5415 45.1808 26.6677C45.0719 26.7938 44.9635 26.9204 44.8555 27.0474Z" fill="white"/>
<path d="M56.9475 16.0901C57.2563 16.5436 57.8736 16.6639 58.3303 16.3581C60.5534 14.8698 62.8789 13.5226 65.2939 12.3294C65.7866 12.086 65.9901 11.4909 65.751 10.9971C65.6004 11.0686 65.4501 11.1406 65.3001 11.2132C65.15 11.2858 65.0003 11.3591 64.8509 11.4329C62.3965 12.6456 60.0332 14.0147 57.774 15.5272C57.6355 15.6199 57.4974 15.7132 57.3596 15.807C57.2219 15.9008 57.0845 15.9952 56.9475 16.0901Z" fill="white"/>
<path d="M71.4583 8.63042C71.6387 9.1485 72.2036 9.42499 72.724 9.24836C75.2453 8.39269 77.8401 7.69612 80.4964 7.17062C81.0356 7.06395 81.3871 6.54244 81.2849 6.00345C81.1208 6.03318 80.9569 6.06355 80.7932 6.09457C80.6294 6.12561 80.4657 6.1573 80.3024 6.18963C77.6025 6.72373 74.9653 7.43171 72.4027 8.30141C72.2448 8.355 72.0872 8.4092 71.9298 8.46401C71.7724 8.51887 71.6152 8.57434 71.4583 8.63042Z" fill="white"/>
<path d="M87.411 5.20419C87.4506 5.75141 87.9244 6.16515 88.4729 6.12971C89.804 6.04369 91.1468 6 92.5 6C93.8531 6 95.1959 6.04369 96.5271 6.12971C97.0756 6.16515 97.5493 5.75141 97.589 5.20419C97.423 5.19082 97.2568 5.17809 97.0904 5.16601C96.9243 5.15396 96.758 5.14255 96.5916 5.13179C95.239 5.04438 93.8747 5 92.5 5C91.1253 5 89.761 5.04438 88.4084 5.13179C88.2419 5.14255 88.0756 5.15396 87.9095 5.16601C87.7432 5.17809 87.577 5.19082 87.411 5.20419Z" fill="white"/>
<path d="M103.715 6.00345C103.613 6.54244 103.964 7.06395 104.504 7.17062C107.16 7.69612 109.755 8.39269 112.276 9.24836C112.796 9.42499 113.361 9.14849 113.542 8.63041C113.385 8.57434 113.228 8.51887 113.07 8.46401C112.913 8.4092 112.755 8.355 112.597 8.30141C110.035 7.43171 107.397 6.72373 104.698 6.18963C104.534 6.1573 104.371 6.12561 104.207 6.09457C104.043 6.06355 103.879 6.03318 103.715 6.00345Z" fill="white"/>
<path d="M119.249 10.9971C119.01 11.4909 119.213 12.086 119.706 12.3294C122.121 13.5226 124.447 14.8698 126.67 16.3581C127.126 16.6639 127.744 16.5436 128.052 16.0901C127.915 15.9952 127.778 15.9008 127.64 15.807C127.503 15.7132 127.364 15.6199 127.226 15.5272C124.967 14.0147 122.603 12.6456 120.149 11.4329C120 11.3591 119.85 11.2858 119.7 11.2132C119.55 11.1406 119.4 11.0686 119.249 10.9971Z" fill="white"/>
<path d="M132.953 19.8555C132.594 20.2707 132.637 20.8982 133.05 21.2608C135.067 23.0317 136.968 24.9325 138.739 26.9502C139.102 27.3633 139.729 27.4061 140.144 27.0474C140.036 26.9204 139.928 26.7938 139.819 26.6677C139.71 26.5415 139.601 26.4158 139.491 26.2906C137.691 24.2402 135.76 22.3087 133.709 20.5092C133.584 20.3992 133.458 20.2898 133.332 20.1809C133.206 20.0719 133.08 19.9635 132.953 19.8555Z" fill="white"/>
<path d="M143.91 31.9475C143.456 32.2563 143.336 32.8736 143.642 33.3303C145.13 35.5535 146.477 37.8789 147.671 40.2939C147.914 40.7867 148.509 40.9902 149.003 40.751C148.931 40.6004 148.859 40.4501 148.787 40.3001C148.714 40.1501 148.641 40.0003 148.567 39.851C147.354 37.3965 145.985 35.0332 144.473 32.774C144.38 32.6355 144.287 32.4974 144.193 32.3596C144.099 32.2219 144.005 32.0845 143.91 31.9475Z" fill="white"/>
<path d="M0.375549 67.972C0.375549 75.994 6.71755 82.42 14.1936 82.42C18.8136 82.42 22.8036 80.152 25.0716 76.456L23.8116 75.658C21.7956 78.976 18.0156 80.908 14.1516 80.908C7.51555 80.908 1.97155 75.196 1.97155 67.972C1.97155 60.79 7.55755 55.078 14.1516 55.078C18.0156 55.078 21.7956 57.052 23.8116 60.37L25.0716 59.572C22.8036 55.918 18.8136 53.608 14.1936 53.608C6.71755 53.608 0.375549 59.992 0.375549 67.972Z" fill="white"/>
<path d="M33.1713 82H34.7253V68.77H52.6593V82H54.1713V54.028H52.6593V67.3H34.7253V54.028H33.1713V82Z" fill="white"/>
<path d="M65.1297 76C67.6415 79.8774 71.9464 82.378 76.868 82.378C81.7633 82.378 86.075 79.8774 88.5955 76H86.6498C84.3577 78.981 80.8154 80.866 76.868 80.866C72.8723 80.866 69.3374 78.981 67.0602 76H65.1297Z" fill="white"/>
<path d="M62.9312 70H64.5428C64.4448 69.3406 64.3941 68.6634 64.3941 67.972C64.3941 66.9469 64.5101 65.9521 64.729 65H63.0976C62.9013 65.9567 62.798 66.9506 62.798 67.972C62.798 68.662 62.8434 69.3389 62.9312 70Z" fill="white"/>
<path d="M65.8904 59C68.4692 55.7486 72.4287 53.692 76.868 53.692C81.3314 53.692 85.2875 55.7486 87.859 59H85.8102C83.5503 56.6248 80.388 55.162 76.868 55.162C73.3908 55.162 70.2278 56.6248 67.9569 59H65.8904Z" fill="white"/>
<path d="M89.0115 65C89.2278 65.9521 89.342 66.9469 89.342 67.972C89.342 68.6634 89.2905 69.3406 89.1912 70H90.8041C90.8924 69.3389 90.938 68.662 90.938 67.972C90.938 66.9506 90.8355 65.9567 90.6403 65H89.0115Z" fill="white"/>
<path d="M96.9338 65C96.7375 65.9567 96.6343 66.9506 96.6343 67.972C96.6343 68.662 96.6796 69.3389 96.7674 70H98.379C98.2811 69.3406 98.2303 68.6634 98.2303 67.972C98.2303 66.9469 98.3463 65.9521 98.5653 65H96.9338Z" fill="white"/>
<path d="M119.646 59C117.387 56.6248 114.224 55.162 110.704 55.162C107.227 55.162 104.064 56.6248 101.793 59H99.7266C102.305 55.7486 106.265 53.692 110.704 53.692C115.168 53.692 119.124 55.7486 121.695 59H119.646Z" fill="white"/>
<path d="M122.848 65C123.064 65.9521 123.178 66.9469 123.178 67.972C123.178 68.6634 123.127 69.3406 123.027 70H124.64C124.729 69.3389 124.774 68.662 124.774 67.972C124.774 66.9506 124.672 65.9567 124.477 65H122.848Z" fill="white"/>
<path d="M122.432 76H120.486C118.194 78.981 114.652 80.866 110.704 80.866C106.709 80.866 103.174 78.981 100.896 76H98.966C101.478 79.8774 105.783 82.378 110.704 82.378C115.6 82.378 119.911 79.8774 122.432 76Z" fill="white"/>
<path d="M131.269 76.666C132.739 80.236 136.477 82.252 140.719 82.252C145.927 82.252 149.833 79.27 149.833 74.524C149.833 69.19 145.297 68.098 141.055 67.09C137.149 66.208 133.369 65.326 133.369 61.168C133.369 57.808 136.603 55.246 140.257 55.246C143.743 55.246 146.473 56.926 147.817 59.95L149.077 59.236C147.607 55.666 144.121 53.776 140.299 53.776C135.763 53.776 131.815 56.968 131.815 61.168C131.815 66.502 136.351 67.594 140.593 68.56C144.541 69.442 148.279 70.324 148.279 74.524C148.279 78.43 145.003 80.782 140.719 80.782C136.897 80.782 133.873 79.018 132.571 75.994L131.269 76.666Z" fill="white"/>
<path d="M160.592 82H177.182V80.53H160.34V68.77L176.048 68.728V67.3H160.34V55.456H176.762V54.028H160.592C159.206 54.028 158.786 54.7 158.786 55.792V80.236C158.786 81.328 159.206 82 160.592 82Z" fill="white"/>
</svg>
